<?xml version="1.0" encoding="utf-8"?>
<!-- Generator: Adobe Illustrator 20.0.0, SVG Export Plug-In . SVG Version: 6.00 Build 0)  -->
<svg version="1.1" id="Layer_1" xmlns="http://www.w3.org/2000/svg" xmlns:xlink="http://www.w3.org/1999/xlink" x="0px" y="0px"
	 viewBox="0 0 953 300" style="enable-background:new 0 0 953 300;" xml:space="preserve">
<style type="text/css">
	.st0{fill:#FFFFFF;}
	.st1{fill:#B72C20;}
	.st2{fill:#EBC087;}
</style>
<g transform="translate(0.000000,300.000000) scale(0.100000,-0.100000)">
	<g id="XMLID_1_">
		<g>
			<path class="st0" d="M9135,1516c0-927-2-1212-11-1221c-24-23-75-39-93-28c-12,7-57,191-168,684c-83,371-166,746-183,834
				s-33,170-36,183c-15,72-21-15-23-300c-1-178-3-336-6-353c-2-16-7-208-11-425c-5-332-8-440-13-567c-1-18-58-45-89-41l-27,3l4,395
				c2,217,5,404,7,415c3,11,7,371,11,800c6,868,1,815,74,815c26,0,41-6,48-17c5-10,21-79,36-153c14-74,54-256,87-405
				c69-312,102-463,153-700c20-93,49-230,65-303c17-74,30-136,30-138s4-4,9-4s9,30,8,68c0,37,0,422,1,855l2,788l25,24
				c26,27,78,34,91,13C9130,2731,9134,2182,9135,1516z"/>
			<path class="st0" d="M8269,1990c11-282,6-1286-7-1385c-30-233-35-258-52-275c-34-34-336-56-415-30c-24,8-48,30-83,78
				c-27,37-52,72-56,79c-3,6-9,134-12,285c-8,415,17,701,66,753c24,26,122,42,318,52l115,6l-6,236c-3,130-13,306-22,391
				c-14,146-50,386-62,416c-6,16-48,13-245-17c-155-23-202-24-222-3c-24,24-19,43,22,84c40,40,24,37,302,63c19,2,81,5,136,5
				c139,3,138,3,163-163C8244,2337,8262,2159,8269,1990z M8137,1072l6,356l-34-1c-43-1-169-12-242-21c-62-8-59-2-77-131
				c-7-51-10-194-8-390c3-301,4-312,27-368c14-33,34-65,45-72c31-20,216-30,238-13C8116,450,8128,620,8137,1072z"/>
			<path class="st0" d="M7387,600c5-234,5-246-14-269l-20-24l-234,2c-192,2-237,5-251,17c-17,17-29,71-53,259
				c-42,323-47,452-52,1278c-5,734-4,810,11,832l16,25h250c236,0,250-1,260-19c16-31,12-86-8-104c-15-14-50-17-222-19l-203-3l-1-580
				c-1-769,10-1013,70-1483l7-52h61c34,0,108-3,166-6l105-6l2,43c3,78-17,338-37,493c-11,83-24,211-30,285c-5,74-11,135-12,136
				c-2,1-52,5-111,8c-59,4-113,9-118,13c-38,23-26,119,17,130c14,4,86,5,160,2c163-6,167-8,171-105c9-189,26-371,44-483
				C7375,882,7383,773,7387,600z"/>
			<path class="st1" d="M6520,2720c18-18,20-33,20-167c0-122-3-149-17-165c-23-26-96-25-123,2c-18,18-20,33-20,169
				c0,144,1,151,22,165C6434,2747,6496,2744,6520,2720z"/>
			<path class="st2" d="M6529.9,1170.3c0.1-6.1,0.1-12.4,0.1-19c0-28.2-0.1-51.4-0.5-70.5c-0.2,8.7-0.4,16.5-0.7,23.4
				C6529.5,1121.4,6529.8,1143,6529.9,1170.3z"/>
			<path class="st2" d="M6528.8,1729.2c0.7,18.4,1.1,41.8,1.1,71.9c0.1-7.8,0.1-16,0.1-24.8c0-28.2-0.1-51.4-0.5-70.5
				C6529.3,1714.5,6529.1,1722.3,6528.8,1729.2z"/>
			<path class="st2" d="M6527,1590.8c0.1,2.4,0.1,4.7,0,7c0.1,7.2,0.1,14.8,0.1,22.8c0,11.3,0,21.7-0.1,31.4
				c1.3,13.2,2,30.5,2.5,53.8c0.4-20.3,0.5-45.9,0.5-78.6c0-65.9-0.8-104-3.3-127.7c-0.1,1.5-0.1,3-0.1,4.5c0,0.6-0.1,1.2,0,1.7
				c0.4,18.5,0.5,40.6,0.5,67.3C6527.1,1579.2,6527.1,1585.1,6527,1590.8z"/>
			<path class="st2" d="M6526.1,1334c0.7,22.3,1,51.3,1,89.9c0,20.1,0,37.5-0.2,52.7c2.6-22.6,3.1-60,3.1-128.6
				c0-28.3-0.1-51.4-0.5-70.5c-0.5,26.5-1.5,43.9-3.4,56.3C6526.1,1333.8,6526.1,1333.9,6526.1,1334z"/>
			<path class="st2" d="M6529.2,1243.5c0,5.3-0.1,10.3-0.1,15c0,0.1,0,0.3,0,0.4c0.1,5.7,0.3,11.9,0.4,18.6
				c0.4-20.3,0.5-45.9,0.5-78.6c0-8,0-15.6-0.1-22.8C6529.9,1204.3,6529.7,1226.2,6529.2,1243.5z"/>
			<path class="st2" d="M6528.1,1890.9c0.3,8.2,0.6,17.3,1,27.5c0.7-22.4,0.9-52.6,0.9-94.5c0-8,0-15.6-0.1-22.8
				C6529.9,1843.1,6529.4,1871.2,6528.1,1890.9z"/>
			<path class="st2" d="M6528.3,1114.8c0.7,21.9,1,50.2,1,87.4c0,15.2,0,29-0.1,41.3c0.5-17.3,0.7-39.2,0.7-67.4
				c0.1-1.9,0.1-3.8,0-5.8c-0.1-27.3-0.4-48.9-1.1-66.1c-0.1,3.6-0.3,6.9-0.5,10C6528.3,1114.4,6528.3,1114.6,6528.3,1114.8z"/>
			<path class="st2" d="M6527.1,1769.7c0,40.5-0.2,70.2-0.8,92.3c-0.1,0.2-0.1,0.3,0,0.4c0.7,8.1,1.3,17.5,1.8,28.5
				c1.3-19.7,1.8-47.8,1.8-89.8c0-30.1-0.4-53.5-1.1-71.9c-0.4,9.9-0.9,18.1-1.7,25c0,0.1,0,0.3,0,0.4
				C6527.1,1759.5,6527.1,1764.5,6527.1,1769.7z"/>
			<path class="st2" d="M6529.1,1258.5c0-4.7,0.1-9.7,0.1-15c-0.1,3.5-0.2,6.8-0.4,9.9c0,0.1,0,0.1,0,0.1
				C6528.9,1255.1,6528.9,1256.8,6529.1,1258.5z"/>
			<path class="st2" d="M6526.7,1071.1c-0.1,3.4-0.2,6.6-0.2,9.6c0.8,9,1.4,20,1.8,33.5c0.2-3.1,0.4-6.4,0.5-10
				C6528.3,1090.7,6527.6,1080,6526.7,1071.1z"/>
			<path class="st2" d="M6518.2,1188c6.1,10.6,9.2,27.4,10.6,65.4c0.2-3.1,0.3-6.4,0.4-9.9c0.1-12.3,0.1-26.1,0.1-41.3
				c0-37.2-0.3-65.5-1-87.4c-0.9,14.7-2.2,24.8-4.2,32.5C6523,1167.3,6521.2,1179.3,6518.2,1188
				C6518.2,1188,6518.2,1188,6518.2,1188z"/>
			<path class="st2" d="M6528.8,1729.2c-0.5-13.5-1.2-24.2-2.1-33.1c-0.1,1.2-0.1,2.4-0.1,3.6c0,0.9,0,1.9,0,2.7
				c0.3,14.8,0.4,31.9,0.5,51.8C6527.9,1747.3,6528.4,1739.1,6528.8,1729.2z"/>
			<path class="st2" d="M6527,1652c0,16.9-0.1,31.5-0.3,44.1c0.9,8.9,1.6,19.6,2.1,33.1c0.3-6.9,0.5-14.7,0.7-23.4
				C6529,1682.5,6528.3,1665.2,6527,1652z"/>
			<path class="st2" d="M6529.5,1080.8c-0.5-23.3-1.2-40.6-2.5-53.8c0,16.9-0.1,31.5-0.3,44.1c0.9,8.9,1.6,19.6,2.1,33.1
				C6529.1,1097.3,6529.3,1089.5,6529.5,1080.8z"/>
			<path class="st2" d="M6526.6,879c0,0.6-0.1,1.2,0,1.7c0.4,18.5,0.5,40.6,0.5,67.3c0,5.4,0,10.7-0.1,15.7c0,2.7,0,5.4,0,8
				c0.1,7.5,0.1,15.5,0.1,23.9c0,11.3,0,21.7-0.1,31.4c1.3,13.2,2,30.5,2.5,53.8c0.4-20.3,0.5-45.9,0.5-78.6
				c0-65.9-0.8-104-3.3-127.7C6526.6,876,6526.6,877.5,6526.6,879z"/>
			<path class="st2" d="M6527,1590.8c0.1-5.7,0.1-11.6,0.1-17.8c0-26.7-0.1-48.8-0.5-67.3c-0.3,7.6-0.5,14.5-0.7,20.6
				C6526.6,1543.2,6526.9,1564.2,6527,1590.8z"/>
			<path class="st2" d="M6527,971.7c-0.2,17.9-0.5,33.2-1,46.3c0.3,2.8,0.7,5.8,1,9c0.1-9.7,0.1-20.1,0.1-31.4
				C6527.1,987.2,6527.1,979.2,6527,971.7z"/>
			<path class="st2" d="M6527,1597.8c0,19.8-0.1,36.5-0.3,50.7c0.1,1.1,0.2,2.3,0.3,3.5c0.1-9.7,0.1-20.1,0.1-31.4
				C6527.1,1612.6,6527.1,1605,6527,1597.8z"/>
			<path class="st2" d="M6529.1,1258.9c-0.3,35.6-1.2,58.2-3.1,73.6c0,0.4,0,0.9,0.1,1.3c1.9-12.4,2.9-29.8,3.4-56.3
				C6529.4,1270.8,6529.2,1264.6,6529.1,1258.9z"/>
			<path class="st2" d="M6503.6,1801.8c4.6,3.6,8.4,8.1,11.4,13.3c5.4,9.7,9,22.1,11.3,46.9c0.6-22.1,0.8-51.8,0.8-92.3
				c0-5.2,0-10.2,0-15.1c-2.5,22.5-6.8,30.7-14.7,39.6C6509.9,1797,6507,1799.6,6503.6,1801.8z"/>
			<path class="st2" d="M6526.7,1648.5c-0.2,10.2-0.5,19-0.8,26.8c0.2,5.9,0.4,12.4,0.6,19.4c0,0,0,0.1,0,0.2
				c0.1,0.4,0.1,0.8,0.2,1.2c0.2-12.6,0.3-27.2,0.3-44.1C6526.9,1650.8,6526.8,1649.6,6526.7,1648.5z"/>
			<path class="st2" d="M6509.4,1590.9c-1.8,2.1-3.9,4-6.2,5.7c3.5,2.4,6.5,5,8.9,8.1c2.5,3.3,4.6,7,6.4,12
				c3.8,6.8,6.4,16.1,8.2,31.8c0.2-14.2,0.3-30.9,0.3-50.7c0.1-2.3,0.1-4.6,0-7c-0.1-26.6-0.4-47.6-1.1-64.5
				C6524.1,1568.8,6519.7,1579.2,6509.4,1590.9z"/>
			<path class="st2" d="M6525.9,901.3c0.6,16.4,1,36.8,1.1,62.4c0.1-5,0.1-10.3,0.1-15.7c0-26.7-0.1-48.8-0.5-67.3
				C6526.3,888.3,6526.1,895.2,6525.9,901.3z"/>
			<path class="st2" d="M6461,1389.1c21,0,41.2,6.3,51.1,18.9c8.4,10.9,12.3,27,14,74.9c0.3-2,0.6-4,0.8-6.3
				c0.2-15.2,0.2-32.6,0.2-52.7c0-38.6-0.3-67.6-1-89.9c-0.5,2.9-1,5.6-1.6,8c-2.6,13.6-6.6,20.1-12.9,27.2
				c-10.8,12.3-30.3,19-50.6,19.6V1389.1z"/>
			<path class="st2" d="M6525.6,1038c0,8.8,0,17-0.1,24.8c0.4,2.6,0.8,5.4,1.2,8.3c0.2-12.6,0.3-27.2,0.3-44.1c-0.3-3.2-0.7-6.2-1-9
				c-0.2,2.8-0.3,5.5-0.4,8.1C6525.6,1030,6525.6,1033.9,6525.6,1038z"/>
			<path class="st2" d="M6526.7,1499.5c0.1-7,0.2-14.6,0.2-22.9c-0.2,2.3-0.5,4.3-0.8,6.3c0,0.1,0,0.1,0,0.2
				c0.1,4.7,0.3,9.6,0.4,14.9c0,0.1,0,0.2,0,0.3C6526.6,1498.7,6526.6,1499.1,6526.7,1499.5z"/>
			<path class="st2" d="M6526.6,1699.7c0-1.2,0-2.4,0.1-3.6c-0.1-0.4-0.1-0.8-0.2-1.2C6526.5,1696.5,6526.5,1698.1,6526.6,1699.7z"
				/>
			<path class="st2" d="M6526.6,879c0-1.5,0-3,0.1-4.5c-0.1-0.4-0.1-0.8-0.2-1.2C6526.5,875.2,6526.6,877.1,6526.6,879z"/>
			<path class="st2" d="M6526.6,1504c0-1.5,0-3,0.1-4.5c-0.1-0.4-0.1-0.8-0.2-1.2C6526.5,1500.2,6526.6,1502.1,6526.6,1504z"/>
			<path class="st2" d="M6526.7,1071.1c-0.4-2.9-0.8-5.7-1.2-8.3c0.1,3,0.1,5.9,0,8.8c0.4,2.8,0.7,5.8,1,9.1
				C6526.5,1077.7,6526.6,1074.5,6526.7,1071.1z"/>
			<path class="st2" d="M6526.6,1505.7c-0.1-0.5,0-1.1,0-1.7c0-1.9-0.1-3.8-0.1-5.7c0-0.1,0-0.2,0-0.3c-0.4-3.5-0.9-6.6-1.4-9.4
				c-0.4,2-0.8,3.8-1.3,5.5c0.9,8.6,1.6,19.1,2.1,32.2C6526.1,1520.2,6526.3,1513.3,6526.6,1505.7z"/>
			<path class="st2" d="M6523.8,1297.3L6523.8,1297.3c1,9.4,1.7,20.9,2.2,35.2c1.9-15.4,2.8-38,3.1-73.6c0-0.1,0-0.3,0-0.4
				c-0.2-1.7-0.2-3.4-0.3-5C6527.9,1274.7,6526.4,1287.9,6523.8,1297.3z"/>
			<path class="st2" d="M6518.5,1616.7c4,11,6.2,27.9,7.4,58.6c0.3-7.8,0.6-16.6,0.8-26.8
				C6524.9,1632.8,6522.3,1623.5,6518.5,1616.7z"/>
			<path class="st2" d="M6526.3,1862.4c-0.1-0.1-0.1-0.2,0-0.4c-2.3-24.8-5.9-37.2-11.3-46.9c-3-5.2-6.8-9.7-11.4-13.3
				c-21.8,14.7-59.5,16.5-85.2,2.9c-4.5,3.7-8.5,8.1-11.8,13.2c-9.7,15.2-14.1,28.8-16.1,80.1c0.9,15.4,2.3,25.1,4.6,31.9
				c2.6,4.5,6,7.5,10.4,10.8c28.2,23,82.8,20,103.9-4C6520.5,1924.2,6524.7,1913.1,6526.3,1862.4z"/>
			<path class="st2" d="M6527,963.7c-0.1-25.6-0.5-46-1.1-62.4c-0.1,2.7-0.3,5.2-0.4,7.5c0,23.4-0.1,42.7-0.4,58.7
				c0.3,13.6,0.4,29.4,0.4,47.7c0.2,0.9,0.3,1.8,0.5,2.8c0.5-13.1,0.8-28.4,1-46.3C6527,969.1,6527,966.4,6527,963.7z"/>
			<path class="st2" d="M6525.5,866.2c0.1,1.9,0.1,3.7,0,5.5c0.1,5.5,0.1,11.2,0.1,17.2c0,1.6,0,3.2,0,4.8c0,0.1,0,0.2,0,0.3
				c0.1,2.4,0.2,4.8,0.3,7.3c0.2-6.1,0.4-13,0.7-20.6c-0.1-0.5,0-1.1,0-1.7c0-1.9-0.1-3.8-0.1-5.7c0-0.1,0-0.2,0-0.3
				C6526.1,870.5,6525.8,868.3,6525.5,866.2z"/>
			<path class="st2" d="M6526.5,1694.7c-0.2-7-0.4-13.5-0.6-19.4c-0.2,4-0.4,7.8-0.6,11.3
				C6525.8,1689.1,6526.1,1691.8,6526.5,1694.7z"/>
			<path class="st2" d="M6526.5,1498c-0.1-5.3-0.3-10.2-0.4-14.9c-0.3,2-0.6,3.8-1,5.5C6525.6,1491.4,6526.1,1494.5,6526.5,1498z"/>
			<path class="st2" d="M6526.1,1334c0-0.1,0-0.2,0-0.2c-0.1-0.4-0.1-0.9-0.1-1.3c-0.4,3.5-0.9,6.7-1.5,9.5
				C6525.1,1339.6,6525.6,1336.9,6526.1,1334z"/>
			<path class="st2" d="M6525.2,1110.9c-0.2,14.5-0.6,26.5-1.1,36.4c2-7.7,3.3-17.8,4.2-32.5c0-0.2,0-0.4,0-0.6
				c-0.4-13.5-1-24.5-1.8-33.5c-0.3,11.6-0.7,21.2-1.3,29.4C6525.2,1110.4,6525.2,1110.7,6525.2,1110.9z"/>
			<path class="st2" d="M6526.5,873c-0.2-10-0.5-18.8-0.9-26.6c0,4.3,0,8.5-0.1,12.5c0.1,2.4,0.1,4.8,0,7.2v0.1
				C6525.8,868.3,6526.1,870.5,6526.5,873z"/>
			<path class="st2" d="M6525.6,1026.1c0.1-2.6,0.2-5.3,0.4-8.1c-0.2-1-0.3-1.9-0.5-2.8C6525.6,1018.7,6525.6,1022.4,6525.6,1026.1z
				"/>
			<path class="st2" d="M6525.9,901.3c-0.1-2.5-0.2-4.9-0.3-7.3c0,5.1,0,10-0.1,14.8C6525.6,906.5,6525.8,904,6525.9,901.3z"/>
			<path class="st2" d="M6525.6,697.3c0,30.3-0.1,54.3-0.5,73.5c0.4,19.1,0.5,42.3,0.5,70.5c0,1.6,0,3.2,0,4.8c0,0.1,0,0.2,0,0.3
				c0.4,7.8,0.7,16.6,0.9,26.6c0,0.1,0,0.2,0,0.3c0.1,0.4,0.1,0.8,0.2,1.2c0.3-19.8,0.4-44.5,0.4-75.6
				C6527.1,753.2,6526.7,720.8,6525.6,697.3z"/>
			<path class="st2" d="M6525.5,858.9c0.1-4,0.1-8.2,0.1-12.5c0-0.1,0-0.2,0-0.3c-0.1-1-0.1-2-0.2-2.9
				C6525.5,848.2,6525.5,853.4,6525.5,858.9z"/>
			<path class="st2" d="M6525.5,871.7c0,6.7,0,13-0.1,19c0.1,1,0.1,2,0.2,3c0-1.6,0-3.2,0-4.8
				C6525.6,882.9,6525.6,877.2,6525.5,871.7z"/>
			<path class="st2" d="M6525.6,1026.1c-0.5,10.7-1.1,19.9-1.8,27.7c0.6,2.7,1.2,5.7,1.7,9c0.1-7.8,0.1-16,0.1-24.8
				C6525.6,1033.9,6525.6,1030,6525.6,1026.1z"/>
			<path class="st2" d="M6525.5,1071.6c0,14.5-0.1,27.3-0.3,38.5c0.6-8.2,1-17.8,1.3-29.4
				C6526.2,1077.4,6525.9,1074.4,6525.5,1071.6z"/>
			<path class="st2" d="M6525.4,890.7c0,8.2-0.1,15.8-0.2,22.7c0.2-1.5,0.3-3,0.3-4.6c0.1-4.8,0.1-9.7,0.1-14.8c0-0.1,0-0.2,0-0.3
				C6525.5,892.7,6525.5,891.7,6525.4,890.7z"/>
			<path class="st2" d="M6522.6,660.2c0.1,1.1,0.1,2.1,0,3.2c1.4,8.6,2.3,19.5,3,33.6c0-1.6,0-3.2,0-4.8c0-65.9-0.8-104-3.3-127.7
				c-0.1,1.5-0.1,3-0.1,4.5c0,0.6-0.1,1.2,0,1.7c0.4,18.5,0.5,40.6,0.5,67.3C6522.7,645.8,6522.7,653.2,6522.6,660.2z"/>
			<path class="st2" d="M6525.2,914.2c-0.2,11.1-0.4,20.8-0.8,29.2c0.3,7.2,0.5,15.2,0.7,24.1c0.3-16,0.4-35.3,0.4-58.7
				c0,1.6-0.1,3.1-0.3,4.6C6525.2,913.7,6525.2,913.9,6525.2,914.2z"/>
			<path class="st2" d="M6524.4,794.2c0.5,13.5,0.9,29.6,1,49c0.1,0.9,0.1,1.9,0.2,2.9c0-1.6,0-3.2,0-4.8c0-28.2-0.1-51.4-0.5-70.5
				C6524.9,779.6,6524.7,787.3,6524.4,794.2z"/>
			<path class="st2" d="M6525.1,967.5c-0.3,15.4-0.8,27.8-1.5,37.9c0.7,2.9,1.3,6.2,1.9,9.8C6525.5,996.9,6525.4,981.1,6525.1,967.5
				z"/>
			<path class="st2" d="M6524.4,794.2c-0.3,8.2-0.8,15.2-1.4,21.2c1.1,7.4,1.8,16.5,2.4,27.8
				C6525.3,823.8,6524.9,807.7,6524.4,794.2z"/>
			<path class="st2" d="M6524.4,943.4c-1,24.4-2.9,38.2-6.2,47.8v0.1c2.2,3.7,4,8.2,5.4,14.1c0.7-10.1,1.2-22.5,1.5-37.9
				C6524.9,958.6,6524.7,950.6,6524.4,943.4z"/>
			<path class="st2" d="M6509.4,1740c9.3-10.6,13.8-20.1,15.9-53.4c-2.2-13.9-5.6-21.6-10.3-27.7c-20.2-26-84.6-25-108.4,2
				c-9.8,11.1-14.2,21.1-16.1,59.2c2.7,13.6,7.3,18.1,15,23.9C6433.7,1767,6488.3,1764,6509.4,1740z"/>
			<path class="st2" d="M6524.4,943.4c0.4-8.4,0.6-18.1,0.8-29.2c-0.4,5.6-0.8,10.6-1.4,14.9C6524,933.5,6524.2,938.2,6524.4,943.4z
				"/>
			<path class="st2" d="M6523.8,1494.1c0.5-1.7,0.9-3.5,1.3-5.5c-1.6-9.5-3.8-16-6.7-21.1
				C6520.8,1473.8,6522.5,1482.2,6523.8,1494.1z"/>
			<path class="st2" d="M6525.5,1062.8c-0.5-3.3-1.1-6.3-1.7-9c-0.2,1.6-0.3,3.1-0.5,4.5c0.8,3.8,1.6,8.2,2.2,13.3
				C6525.6,1068.7,6525.6,1065.8,6525.5,1062.8z"/>
			<path class="st2" d="M6523.8,1297.4L6523.8,1297.4c-2.3-21.1-6-31-11.7-38.5c-20.3-26-84.6-25-108.4,2
				c-5.7,6.5-9.6,12.7-12.3,24.4c2.4,24.2,7.3,29.7,17,37c28.2,23,82.8,20,104-4C6517.5,1312.4,6521.2,1306.9,6523.8,1297.4z"/>
			<path class="st2" d="M6523.6,1005.4c-1.1,15.8-2.8,25.9-5.4,33.4v0.1c2.3,3.9,4.1,8.6,5.6,14.9c0.7-7.8,1.3-17,1.8-27.7
				c0-3.7,0-7.4-0.1-10.9C6524.9,1011.6,6524.3,1008.3,6523.6,1005.4z"/>
			<path class="st2" d="M6522.6,852.8c0.1,2.5,0.1,5,0,7.4c1.3,7.9,2.2,17.8,2.8,30.5c0.1-6,0.1-12.3,0.1-19c0.1-1.8,0.1-3.6,0-5.5
				v-0.1C6524.7,860.8,6523.7,856.5,6522.6,852.8z"/>
			<path class="st2" d="M6525.4,843.2c-0.6-11.3-1.3-20.4-2.4-27.8c0,1.3-0.2,2.6-0.3,3.8c0,0.1,0,0.3,0,0.4c0,4.9,0,9.9,0,15.1
				c0,6.2,0,12.2-0.1,17.9c0.1,0.1,0.1,0.1,0,0.2c1.1,3.7,2.1,8,2.9,13.3c0.1-2.4,0.1-4.8,0-7.2
				C6525.5,853.4,6525.5,848.2,6525.4,843.2z"/>
			<path class="st2" d="M6517.2,1041.5c2.5,4.3,4.5,9.5,6.1,16.8c0.2-1.4,0.3-2.9,0.5-4.5c-1.5-6.3-3.3-11-5.6-14.9
				C6517.9,1039.8,6517.6,1040.7,6517.2,1041.5z"/>
			<path class="st2" d="M6522.6,668.3c0.1,5.5,0.1,11.3,0.1,17.3c0,11.3,0,21.7-0.1,31.4c1.3,13.2,2,30.5,2.5,53.8
				c0.4-19.2,0.5-43.2,0.5-73.5c0-0.1,0-0.2,0-0.3c-0.7-14.1-1.6-25-3-33.6C6522.7,665.1,6522.7,666.7,6522.6,668.3z"/>
			<path class="st2" d="M6523.8,929.1c-0.5-7.2-1-13.4-1.5-18.8c-0.3,13.3-0.6,24.3-1.1,33.6C6522.2,939.8,6523.1,935,6523.8,929.1z
				"/>
			<path class="st2" d="M6522.7,819.2c0.1-1.2,0.3-2.5,0.3-3.8c-0.1-1-0.2-1.9-0.4-2.8C6522.7,814.8,6522.7,817,6522.7,819.2z"/>
			<path class="st2" d="M6522.6,860.2c0,19.5-0.1,36-0.3,50.1c0.5,5.4,1,11.6,1.5,18.8c0.6-4.3,1-9.3,1.4-14.9c0-0.3,0-0.5,0-0.8
				c0.1-6.9,0.2-14.5,0.2-22.7C6524.8,878,6523.9,868.1,6522.6,860.2z"/>
			<path class="st2" d="M6522.6,717c0,16.9-0.1,31.5-0.3,44.1c0.9,8.9,1.6,19.6,2.1,33.1c0.3-6.9,0.5-14.6,0.7-23.4
				C6524.6,747.5,6523.9,730.2,6522.6,717z"/>
			<path class="st2" d="M6522.7,819.6c-1.1,9.8-2.5,16.8-4.4,22.4c0,0.1,0,0.1,0,0.1c0.1,0.1,0.1,0.3,0.1,0.4
				c1.6,2.8,3,6.1,4.2,10.1c0.1-5.7,0.1-11.7,0.1-17.9C6522.7,829.5,6522.7,824.5,6522.7,819.6z"/>
			<path class="st2" d="M6522.7,638c0-26.7-0.1-48.8-0.5-67.3c-0.3,7.6-0.5,14.5-0.7,20.6c0.7,17.7,1,40.2,1.1,68.9
				C6522.7,653.2,6522.7,645.8,6522.7,638z"/>
			<path class="st2" d="M6522.6,668.3c0,17.4-0.1,32.3-0.3,45.2c0.1,1.1,0.2,2.3,0.3,3.5c0.1-9.7,0.1-20.1,0.1-31.4
				C6522.7,679.6,6522.7,673.8,6522.6,668.3z"/>
			<path class="st2" d="M6518.4,842.5c1.8,4.6,3.1,10.3,4.2,17.7c0.1-2.4,0.1-4.9,0-7.4c0.1-0.1,0.1-0.1,0-0.2
				C6521.4,848.6,6520,845.3,6518.4,842.5z"/>
			<path class="st2" d="M6522.2,767.4c0.3,13.1,0.4,28.1,0.4,45.2c0.2,0.9,0.3,1.8,0.4,2.8c0.6-6,1.1-13,1.4-21.2
				c-0.5-13.5-1.2-24.2-2.1-33.1c-0.1,1.2-0.1,2.4-0.1,3.6C6522.2,765.6,6522.2,766.6,6522.2,767.4z"/>
			<path class="st2" d="M6521.5,591.3c-1,24.2-2.9,38-6.2,47.5v0.1c3.2,5.7,5.6,13.1,7.3,24.5c0.1-1.1,0.1-2.1,0-3.2
				C6522.5,631.5,6522.2,609,6521.5,591.3z"/>
			<path class="st2" d="M6522.2,767.4c-0.4,14.2-0.8,25.7-1.5,35.1c0.7,2.9,1.4,6.3,1.9,10.1
				C6522.6,795.5,6522.5,780.5,6522.2,767.4z"/>
			<path class="st2" d="M6522.3,761.1c0.2-12.6,0.3-27.2,0.3-44.1c-0.1-1.2-0.2-2.4-0.3-3.5c-0.2,10.2-0.5,19-0.8,26.8
				c0.2,5.9,0.4,12.4,0.6,19.4c0,0,0,0.1,0,0.2C6522.2,760.3,6522.2,760.7,6522.3,761.1z"/>
			<path class="st2" d="M6522.2,764.7c0-1.2,0-2.4,0.1-3.6c-0.1-0.4-0.1-0.8-0.2-1.2C6522.1,761.5,6522.1,763.1,6522.2,764.7z"/>
			<path class="st2" d="M6522.2,569c0-1.5,0-3,0.1-4.5c-0.1-0.4-0.1-0.8-0.2-1.2C6522.1,565.2,6522.2,567.1,6522.2,569z"/>
			<path class="st2" d="M6522.2,570.7c-0.1-0.5,0-1.1,0-1.7c0-1.9-0.1-3.8-0.1-5.7c0-0.1,0-0.2,0-0.3c-1.8-14.9-4.4-23.9-8.1-30.5
				c4.1,11,6.3,27.8,7.5,58.8C6521.7,585.2,6521.9,578.3,6522.2,570.7z"/>
			<path class="st2" d="M6512.4,1169.2c-1.8,2.1-3.9,4-6.3,5.8c3.5,2.3,6.5,4.9,8.9,8c1.2,1.5,2.2,3.1,3.2,4.9
				c3-8.6,4.8-20.6,5.9-40.6C6521.5,1157.4,6517.7,1163.1,6512.4,1169.2z"/>
			<path class="st2" d="M6508,859.2c-1.8,2.1-3.9,4-6.3,5.8c3.5,2.2,6.5,4.9,8.9,8c5.7,7.4,9.3,17.1,11.7,37.3
				c0.2-14.1,0.3-30.6,0.3-50.1c-1.1-7.4-2.4-13.1-4.2-17.7c0-0.1,0-0.2-0.2-0.3C6515.7,849.4,6512.4,854.2,6508,859.2z"/>
			<path class="st2" d="M6505,655.9c-1.8,2.1-3.9,4-6.2,5.7c3.5,2.4,6.5,5,8.9,8.1c2.5,3.3,4.7,7.1,6.4,12
				c3.8,6.8,6.3,16.2,8.2,31.8c0.2-12.9,0.3-27.8,0.3-45.2c0.1-1.6,0.1-3.2,0-4.9c-1.7-11.4-4.1-18.8-7.3-24.5
				C6512.8,646.1,6509.5,650.9,6505,655.9z"/>
			<path class="st2" d="M6509.4,1115c-8.6,23.7-22.7,41.7-38.4,49.4c10.3,0.6,20.1,2.9,28.3,6.7c3.8-2.4,7.3-5.3,10.1-8.5
				c9.2-10.4,13.7-19.8,15.8-51.7c0-0.2,0-0.5,0-0.8c0.2-11.2,0.3-24,0.3-38.5c-0.6-5.1-1.4-9.5-2.2-13.3
				C6519.9,1091.9,6514.5,1101,6509.4,1115z"/>
			<path class="st2" d="M6514.1,681.7c4,11,6.2,27.9,7.4,58.6c0.3-7.8,0.6-16.6,0.8-26.8C6520.4,697.9,6517.9,688.5,6514.1,681.7z"
				/>
			<path class="st2" d="M6522.1,759.7c-0.2-7-0.4-13.5-0.6-19.4c-0.2,4.1-0.4,7.8-0.6,11.3C6521.4,754.1,6521.7,756.8,6522.1,759.7z
				"/>
			<path class="st2" d="M6520.9,751.6c-1.1,17.4-2.8,28.3-5.6,36.3c0,0.1,0,0.1,0,0.1c2.2,3.8,3.9,8.4,5.4,14.5
				c0.7-9.4,1.1-20.9,1.5-35.1c0-0.8,0-1.8,0-2.7c-0.1-1.6-0.1-3.2-0.1-4.8c0-0.1,0-0.2,0-0.2
				C6521.7,756.8,6521.4,754.1,6520.9,751.6z"/>
			<path class="st2" d="M6521.2,943.9c-1.2,21.3-3.1,33.6-6.4,42.2c0.1,0.1,0.1,0.1,0.2,0.2c1.2,1.5,2.2,3.1,3.2,4.9
				c3.3-9.6,5.2-23.4,6.2-47.8c-0.2-5.2-0.4-9.9-0.6-14.3C6523.1,935,6522.2,939.8,6521.2,943.9z"/>
			<path class="st2" d="M6520.7,802.5c-1.1,15.5-2.8,25.6-5.4,33c0,0.1,0,0.1,0,0.1c1.1,1.9,2.1,4,3,6.4c1.9-5.6,3.3-12.6,4.4-22.4
				c0-0.1,0-0.3,0-0.4c0-2.2,0-4.4-0.1-6.6C6522.1,808.8,6521.4,805.4,6520.7,802.5z"/>
			<path class="st2" d="M6508,1008.3c-4,4.5-9.1,8.2-15,11.2c9.2,3.1,17,7.9,22,14.4c1.2,1.5,2.2,3.1,3.2,4.9
				c2.6-7.5,4.3-17.6,5.4-33.4c-1.4-5.9-3.2-10.4-5.4-14.1C6515.7,998.5,6512.4,1003.3,6508,1008.3z"/>
			<path class="st2" d="M6523.8,1494.1c-1.3-11.9-3-20.3-5.4-26.6c-1-2-2.2-3.7-3.4-5.3c-20.2-26-84.6-25-108.4,2
				c-6.6,7.6-10.8,14.5-13.4,30.2c2.8,14.1,7.5,18.7,15.2,24.6c28.2,23,82.8,20,104-4C6517.6,1509.1,6521.2,1503.6,6523.8,1494.1z"
				/>
			<path class="st2" d="M6509.4,965.9c-2.8,3.2-6.3,6.1-10.1,8.5c6.4,3,11.7,6.9,15.5,11.7c3.3-8.6,5.2-20.9,6.4-42.2
				C6518.6,954,6514.8,959.8,6509.4,965.9z"/>
			<path class="st2" d="M6518.4,842.5c0-0.1,0-0.3-0.1-0.4h-0.1c0,0.1,0,0.1,0,0.1C6518.4,842.3,6518.4,842.4,6518.4,842.5z"/>
			<path class="st2" d="M6518.3,842.1C6518.3,842.1,6518.3,842.1,6518.3,842.1c-0.9-2.5-1.9-4.6-3-6.5c-0.2,0.5-0.3,1-0.5,1.4
				c0.1,0.1,0.1,0.1,0.2,0.2C6516.2,838.7,6517.2,840.3,6518.3,842.1L6518.3,842.1z"/>
			<path class="st2" d="M6518.2,1188C6518.2,1188,6518.2,1188,6518.2,1188c-1-1.9-2-3.5-3.2-5c-2.4-3.1-5.4-5.7-8.9-8
				c-22.3,17.1-64.6,19-91.2,2.6c-3.1,2.2-5.9,4.7-8.3,7.4c-4.4,5-7.7,9.8-10.3,17.1c2.2,2.5,4.7,4.6,7.7,6.9c28.2,23,82.8,20,104-4
				C6512.4,1200,6515.7,1195.2,6518.2,1188z"/>
			<path class="st2" d="M6490.1,816.2c9.2,3.2,17,7.9,22,14.4c1.1,1.5,2.2,3.1,3.2,4.9c2.6-7.4,4.3-17.5,5.4-33
				c-1.5-6.1-3.2-10.7-5.4-14.5c-2.5,7.2-5.8,12-10.3,17C6501.1,809.5,6496,813.2,6490.1,816.2z"/>
			<path class="st2" d="M6515,1611.3c1.3,1.7,2.5,3.4,3.5,5.4c-1.8-5-3.9-8.7-6.4-12c-2.4-3.1-5.4-5.7-8.9-8.1
				c-1.2,1-2.6,1.9-3.9,2.8C6505.7,1602.4,6511.2,1606.4,6515,1611.3z"/>
			<path class="st2" d="M6517.2,1041.5c-0.9-1.5-1.9-3-2.9-4.3c-5.7-7.3-14.9-12.5-25.8-15.6c-17.6,7.3-40.5,8.5-60.1,2.8
				c-9,3.5-16.9,8.4-22.5,14.8c-3.8,4.3-6.8,8.5-9.2,14.2c2,2.3,4.5,4.3,7.3,6.5c28.2,23,82.8,20,104-4
				C6511.8,1051.5,6514.8,1047.3,6517.2,1041.5z"/>
			<path class="st2" d="M6515.3,788C6515.3,788,6515.3,788,6515.3,788c-1-1.9-2.1-3.5-3.2-5c-20.3-26-84.6-25-108.4,2
				c-4.5,5.1-7.8,9.9-10.3,17.2c2.2,2.5,4.7,4.6,7.7,6.8c5.8,4.8,12.8,8.4,20.4,10.9c20.2-9.5,48-10.7,68.6-3.7
				c5.9-3,11-6.7,14.9-11.2C6509.5,800,6512.8,795.2,6515.3,788z"/>
			<path class="st2" d="M6514.8,837c0.2-0.4,0.3-0.9,0.5-1.4c0,0,0,0,0-0.1c-1-1.8-2.1-3.4-3.2-4.9c-5-6.5-12.8-11.2-22-14.4
				c-2.7,1.4-5.6,2.6-8.6,3.6C6495.5,822.4,6507.8,828.1,6514.8,837z"/>
			<path class="st2" d="M6509.4,1787.6c-3.3,3.8-7.5,7.1-12.3,9.8c2.3,1.3,4.4,2.7,6.5,4.4c3.4-2.2,6.3-4.8,8.8-7.6
				c7.9-8.9,12.2-17.1,14.7-39.6c0-0.1,0-0.3,0-0.4c-0.1-19.9-0.2-37-0.5-51.8C6525.2,1762.5,6521.2,1774.2,6509.4,1787.6z"/>
			<path class="st2" d="M6509.4,1162.6c-2.8,3.2-6.3,6.1-10.1,8.5c2.4,1.2,4.7,2.4,6.8,3.9c2.4-1.8,4.5-3.7,6.3-5.8
				c5.3-6.1,9.1-11.8,11.7-21.9c0.5-9.9,0.9-21.9,1.1-36.4C6523.1,1142.8,6518.6,1152.2,6509.4,1162.6z"/>
			<path class="st2" d="M6515,1033.9c-5-6.5-12.8-11.3-22-14.4c-1.4,0.8-3,1.4-4.5,2.1c10.9,3.1,20.1,8.3,25.8,15.6
				c1,1.3,2,2.8,2.9,4.3c0.4-0.8,0.7-1.7,1-2.6v-0.1C6517.2,1037,6516.2,1035.4,6515,1033.9z"/>
			<path class="st2" d="M6505,1001.7c-5.7,6.5-14,11.5-23.5,14.8c4,0.8,7.9,1.7,11.5,3c5.9-3,11-6.7,15-11.2c4.4-5,7.7-9.8,10.2-17
				v-0.1c-1-1.8-2-3.4-3.2-4.9c-0.1-0.1-0.1-0.1-0.2-0.2C6512.3,992.5,6509.2,997,6505,1001.7z"/>
			<path class="st2" d="M6505,852.6c-2.9,3.2-6.3,6.1-10.2,8.5c2.5,1.1,4.8,2.4,6.9,3.9c2.4-1.8,4.5-3.7,6.3-5.8
				c4.4-5,7.7-9.8,10.2-17c0,0,0,0,0-0.1c-1-1.8-2-3.4-3.2-4.9c-0.1-0.1-0.1-0.1-0.2-0.2C6512.4,843.4,6509.2,847.9,6505,852.6z"/>
			<path class="st2" d="M6494.8,664.4c6.5,3,11.9,7,15.8,11.9c1.3,1.7,2.5,3.4,3.5,5.4c-1.7-4.9-3.9-8.7-6.4-12
				c-2.4-3.1-5.4-5.7-8.9-8.1C6497.5,662.6,6496.2,663.6,6494.8,664.4z"/>
			<path class="st2" d="M6393.2,1494.4c-2.3,14.2-3.4,35.3-3.9,70.2c2.7,18.6,7.4,23.7,16.2,30.3c2,1.6,4.2,3.2,6.5,4.4
				c24.3-17,68.2-18,91.2-2.7c2.3-1.7,4.4-3.6,6.2-5.7c10.3-11.7,14.7-22.1,16.5-64.6c-0.5-13.1-1.2-23.6-2.1-32.2
				c-2.6,9.5-6.2,15-11.4,20.9c-21.2,24-75.8,27-104,4C6400.7,1513.1,6396,1508.5,6393.2,1494.4z"/>
			<path class="st2" d="M6401.1,659.9c2,1.6,4.2,3.2,6.5,4.4c24.3-17,68.2-18,91.2-2.7c2.3-1.7,4.4-3.6,6.2-5.7
				c4.5-5,7.8-9.8,10.3-17v-0.1c-1-1.8-2.1-3.4-3.2-4.9c-20.3-26-84.6-25-108.4,2c-4.5,5-7.8,9.8-10.3,17.2
				C6395.6,655.6,6398.1,657.7,6401.1,659.9z"/>
			<path class="st2" d="M6481.5,1016.5c-2.6,0.9-5.3,1.7-8,2.4c5.2,0.4,10.3,1.4,15,2.7c1.5-0.7,3.1-1.3,4.5-2.1
				C6489.4,1018.2,6485.5,1017.3,6481.5,1016.5z"/>
			<path class="st2" d="M6481.5,1016.5c-15.5-2.8-33.1-1.7-48.2,3.2c2.4,0.5,4.8,0.9,7.3,1.1c10.6-2.4,22.1-3.1,32.9-1.9
				C6476.2,1018.2,6478.9,1017.4,6481.5,1016.5z"/>
			<path class="st2" d="M6497.1,1797.4c-21.4-12.3-52.5-10.9-74.2,4C6446.5,1810.7,6477.1,1808.8,6497.1,1797.4z"/>
			<path class="st2" d="M6499.3,1599.4c-22.5-10.5-57.5-9.1-80,3.8C6444.2,1614.5,6478.3,1612.6,6499.3,1599.4z"/>
			<path class="st2" d="M6471,1164.4c-9.4-0.7-19.2,0-28.5,1.9C6452,1169.9,6461.8,1168.9,6471,1164.4z"/>
			<path class="st2" d="M6499.3,974.4c-22.5-10.5-57.5-9.1-80,3.8C6444.2,989.5,6478.3,987.6,6499.3,974.4z"/>
			<path class="st2" d="M6481.5,819.8c-15.5-2.8-33.1-1.7-48.2,3.2C6449.4,826.1,6467,824.9,6481.5,819.8z"/>
			<path class="st2" d="M6473.5,1018.9c-10.8-1.2-22.3-0.5-32.9,1.9C6451.7,1022,6463.1,1021.4,6473.5,1018.9z"/>
			<path class="st2" d="M6494.8,861.1c-22.5-10.5-57.4-9.1-79.9,3.8C6439.8,876.2,6473.8,874.3,6494.8,861.1z"/>
			<path class="st2" d="M6494.8,664.4c-22.5-10.5-57.4-9.1-79.9,3.8C6439.8,679.5,6473.8,677.6,6494.8,664.4z"/>
			<path class="st2" d="M6419.3,1603.2c22.5-12.9,57.5-14.3,80-3.8c1.3-0.9,2.7-1.8,3.9-2.8c-23-15.3-66.9-14.3-91.2,2.7
				C6414.3,1600.9,6416.8,1602.1,6419.3,1603.2z"/>
			<path class="st2" d="M6490.1,816.2c-20.6-7-48.4-5.8-68.6,3.7c3.8,1.3,7.7,2.4,11.8,3.1c15.1-4.9,32.7-6,48.2-3.2
				C6484.5,818.8,6487.4,817.6,6490.1,816.2z"/>
			<path class="st2" d="M6499.3,974.4c-21,13.2-55.1,15.1-80,3.8c-4.9,2.8-9.2,6.2-12.7,10.1c-3.8,4.4-6.8,8.6-9.2,14.4
				c1.2,1.1,2.4,2,3.7,3c8.8,7.2,20.1,11.8,32.2,14c15.1-4.9,32.7-6,48.2-3.2c9.5-3.3,17.8-8.3,23.5-14.8c4.2-4.7,7.3-9.2,9.8-15.6
				C6511,981.3,6505.7,977.4,6499.3,974.4z"/>
			<path class="st2" d="M6497.1,1797.4c-20,11.4-50.6,13.3-74.2,4c-1.6,1-3.1,2.1-4.5,3.3c25.7,13.6,63.4,11.8,85.2-2.9
				C6501.5,1800.1,6499.4,1798.7,6497.1,1797.4z"/>
			<path class="st2" d="M6414.9,1177.6c26.6,16.4,68.9,14.5,91.2-2.6c-2.1-1.5-4.4-2.7-6.8-3.9c-21,13.2-55.1,15.1-80,3.8
				C6417.8,1175.7,6416.3,1176.7,6414.9,1177.6z"/>
			<path class="st2" d="M6414.9,668.2c22.5-12.9,57.4-14.3,79.9-3.8c1.4-0.8,2.7-1.8,4-2.8c-23-15.3-66.9-14.3-91.2,2.7
				C6409.9,665.9,6412.4,667.1,6414.9,668.2z"/>
			<path class="st2" d="M6471,1164.4c-9.2,4.5-19,5.5-28.5,1.9c-8.4,1.8-16.4,4.7-23.2,8.6c24.9,11.3,59,9.4,80-3.8
				C6491.1,1167.3,6481.3,1165,6471,1164.4z"/>
			<path class="st2" d="M6428.4,1024.4c19.6,5.7,42.5,4.5,60.1-2.8c-4.7-1.3-9.8-2.3-15-2.7c-10.4,2.5-21.8,3.1-32.9,1.9
				C6436.4,1021.7,6432.3,1022.9,6428.4,1024.4z"/>
			<path class="st2" d="M6494.8,861.1c-21,13.2-55,15.1-79.9,3.8c-1.5,0.8-3,1.8-4.4,2.7c26.6,16.4,68.9,14.5,91.2-2.6
				C6499.6,863.5,6497.3,862.2,6494.8,861.1z"/>
			<path class="st2" d="M6440.6,1020.8c-2.5-0.2-4.9-0.6-7.3-1.1c-3.1,1-6.1,2.1-8.9,3.5c1.3,0.5,2.6,0.9,4,1.2
				C6432.3,1022.9,6436.4,1021.7,6440.6,1020.8z"/>
			<path class="st2" d="M6401.1,856.6c4.1,3.3,8.7,6.1,13.8,8.3c22.5-12.9,57.4-14.3,79.9-3.8c3.9-2.4,7.3-5.3,10.2-8.5
				c4.2-4.7,7.4-9.2,9.8-15.6c-7-8.9-19.3-14.6-33.3-17.2c-14.5,5.1-32.1,6.3-48.2,3.2c-10.8,3.4-20.2,8.9-26.7,16.2
				c-3.9,4.4-6.9,8.6-9.2,14.4C6398.6,854.7,6399.8,855.6,6401.1,856.6z"/>
			<path class="st2" d="M6410.5,867.6c-3.1,2.2-5.9,4.7-8.3,7.4c-5.3,6.1-9.1,11.8-11.7,21.9c-0.6,11.4-1,25.3-1.2,42.7
				c2.7,18.6,7.5,23.7,16.2,30.3c4.1,3.3,8.7,6.1,13.8,8.3c22.5-12.9,57.5-14.3,80-3.8c3.8-2.4,7.3-5.3,10.1-8.5
				c5.4-6.1,9.2-11.9,11.8-22c0.5-9.3,0.8-20.3,1.1-33.6c-2.4-20.2-6-29.9-11.7-37.3c-2.4-3.1-5.4-5.8-8.9-8
				C6479.4,882.1,6437.1,884,6410.5,867.6z"/>
			<path class="st2" d="M6424.4,1023.2c-7.1,3.2-13.2,7.5-17.8,12.7c-4.4,5-7.7,9.8-10.2,17.1c0,0.1,0.2,0.3,0.3,0.4
				c2.4-5.7,5.4-9.9,9.2-14.2c5.6-6.4,13.5-11.3,22.5-14.8C6427,1024.1,6425.7,1023.7,6424.4,1023.2z"/>
			<path class="st2" d="M6509.4,1936.7c-21.1,24-75.7,27-103.9,4c-4.4-3.3-7.8-6.3-10.4-10.8c2.8,8.7,7,12.7,13.3,17.4
				c28.2,23,82.8,20,104-4c9.2-10.5,13.6-19.9,15.7-52.4c-0.5-11-1.1-20.4-1.8-28.5C6524.7,1913.1,6520.5,1924.2,6509.4,1936.7z"/>
			<path class="st2" d="M6403.7,1457.6c-5.8,6.5-9.7,12.7-12.3,24.3c0.5,4.9,1.1,9,1.8,12.5c2.6-15.7,6.8-22.6,13.4-30.2
				c23.8-27,88.2-28,108.4-2c1.2,1.6,2.4,3.3,3.4,5.3c-1.7-4.9-3.8-8.6-6.3-11.9C6491.8,1429.6,6427.5,1430.6,6403.7,1457.6z"/>
			<path class="st2" d="M6389,1354c0,39.6,0.1,68.9,0.6,90.8c2.5-19,6.9-26.5,14.1-34.8c12.2-13.9,35.2-20.9,57.3-20.9v-0.3
				c-19.4,0.7-39.5-4.4-53.3-15.6c-12.6-9.6-17.1-15.9-18.6-64.8C6389,1321.9,6389,1337,6389,1354z"/>
			<path class="st2" d="M6389,1808.9c0.1,42,0.4,69.9,1.5,89.1c2-51.3,6.4-64.9,16.1-80.1c3.3-5.1,7.3-9.5,11.8-13.2
				c-3.6-1.9-7-4-10-6.5c-6.2-4.7-10.4-8.6-13.3-17.2c-2.6-4.4-4.4-10.3-5.8-19.7c-0.2,13.4-0.2,28.8-0.3,46.7
				C6389,1808.3,6389,1808.6,6389,1808.9z"/>
			<path class="st2" d="M6389.6,1444.8c0.3,15.9,0.9,27.9,1.8,37.1c2.6-11.6,6.5-17.8,12.3-24.3c23.8-27,88.1-28,108.4-2
				c2.5,3.3,4.6,7,6.3,11.9c2.9,5.1,5.1,11.6,6.7,21.1c0.4-1.7,0.7-3.5,1-5.5c0-0.1,0-0.1,0-0.2c-1.7-47.9-5.6-64-14-74.9
				c-9.9-12.6-30.1-18.9-51.1-18.9c-22.1,0-45.1,7-57.3,20.9C6396.5,1418.3,6392.1,1425.8,6389.6,1444.8z"/>
			<path class="st2" d="M6422.9,1801.4c-6.5-2.4-12.3-5.7-17.4-9.8c-4.4-3.3-7.8-6.2-10.4-10.6c2.9,8.6,7.1,12.5,13.3,17.2
				c3,2.5,6.4,4.6,10,6.5C6419.8,1803.5,6421.3,1802.4,6422.9,1801.4z"/>
			<path class="st2" d="M6419.3,1174.9c-5.1-2.2-9.7-5-13.8-8.3c-4.4-3.3-7.8-6.2-10.4-10.6c2.9,8.6,7.1,12.5,13.3,17.2
				c2,1.7,4.2,3.2,6.5,4.4C6416.3,1176.7,6417.8,1175.7,6419.3,1174.9z"/>
			<path class="st2" d="M6405.5,1744c-7.7-5.8-12.3-10.3-15-23.9c-0.3,4.3-0.5,8.9-0.6,14c-0.1,0.6,0,1.1,0,1.7
				c0.8,23.4,2.3,36.6,5.2,45.2c2.6,4.4,6,7.3,10.4,10.6c5.1,4.1,10.9,7.4,17.4,9.8c21.7-14.9,52.8-16.3,74.2-4
				c4.8-2.7,9-6,12.3-9.8c11.8-13.4,15.8-25.1,17.2-85.2c0-0.8,0-1.8,0-2.7c-0.1-1.6-0.1-3.2-0.1-4.8c0-0.1,0-0.2,0-0.2
				c-0.4-2.9-0.7-5.6-1.2-8.1c-2.1,33.3-6.6,42.8-15.9,53.4C6488.3,1764,6433.7,1767,6405.5,1744z"/>
			<path class="st2" d="M6389.3,1564.6c-0.2,18.6-0.3,41.1-0.3,68.6c0,4.4,0,8.7,0,12.8c2.5-22.3,6.9-30.4,14.7-39.3
				c2.4-2.7,5.2-5.2,8.3-7.4c-2.3-1.2-4.5-2.8-6.5-4.4C6396.7,1588.3,6392,1583.2,6389.3,1564.6z"/>
			<path class="st2" d="M6389.7,1926.8c1.4,52,5.8,58.3,18.7,68.1c28.2,23,82.8,20,104-4c10.8-12.3,15-23.1,16.7-71.2
				c0-0.4,0-0.9,0-1.3c-0.4-10.2-0.7-19.3-1-27.5c-2.1,32.5-6.5,41.9-15.7,52.4c-21.2,24-75.8,27-104,4c-6.3-4.7-10.5-8.7-13.3-17.4
				c-2.2-3.6-3.8-8.4-5.1-15.2C6389.9,1918.5,6389.8,1922.6,6389.7,1926.8z"/>
			<path class="st2" d="M6404,1209c-3-2.3-5.5-4.4-7.7-6.9c-3.6,10.7-5.5,26.8-6.4,56.9c0,0.3,0,0.6,0,0.9
				c0.3,10.2,0.8,18.6,1.5,25.4c2.7-11.7,6.6-17.9,12.3-24.4c23.8-27,88.1-28,108.4-2c5.7,7.5,9.4,17.4,11.7,38.4
				c2.6-9.4,4.1-22.6,5-43.8c0,0,0,0,0-0.1c-1.4-38-4.5-54.8-10.6-65.4c-2.5,7.2-5.8,12-10.2,17C6486.8,1229,6432.2,1232,6404,1209z
				"/>
			<path class="st2" d="M6394.1,1061.5c-1.7,8-2.9,18.6-3.6,33.6c2.7,13.5,7.4,18.1,15,23.9c10,27.3,23.2,42.1,37,47.3
				c9.3-1.9,19.1-2.6,28.5-1.9c15.7-7.7,29.8-25.7,38.4-49.4c5.1-14,10.5-23.1,13.9-56.7c-1.6-7.3-3.6-12.5-6.1-16.8
				c-2.4,5.8-5.4,10-9.2,14.4c-21.2,24-75.8,27-104,4c-2.8-2.2-5.3-4.2-7.3-6.5c-0.9,2.2-1.7,4.6-2.4,7.3
				C6394.2,1061,6394.2,1061.2,6394.1,1061.5z"/>
			<path class="st2" d="M6396.3,856.3c-2.9,8.6-4.7,20.7-5.8,40.6c2.6-10.1,6.4-15.8,11.7-21.9c2.4-2.7,5.2-5.2,8.3-7.4
				c-2.3-1.2-4.5-2.7-6.5-4.4C6401,860.9,6398.5,858.8,6396.3,856.3z"/>
			<path class="st2" d="M6433.3,1019.7c-12.1-2.2-23.4-6.8-32.2-14c-1.3-1-2.5-1.9-3.7-3c-0.4,0.8-0.7,1.7-1,2.7
				c2.1,2.5,4.6,4.6,7.6,6.9c5.8,4.8,12.8,8.4,20.4,10.9C6427.2,1021.8,6430.2,1020.7,6433.3,1019.7z"/>
			<path class="st2" d="M6404,863.2c2,1.7,4.2,3.2,6.5,4.4c1.4-0.9,2.9-1.9,4.4-2.7c-5.1-2.2-9.7-5-13.8-8.3c-1.3-1-2.5-1.9-3.7-3
				c-0.4,0.9-0.7,1.8-1.1,2.7C6398.5,858.8,6401,860.9,6404,863.2z"/>
			<path class="st2" d="M6389.9,1110.8c0.8,23.4,2.3,36.6,5.2,45.2c2.6,4.4,6,7.3,10.4,10.6c4.1,3.3,8.7,6.1,13.8,8.3
				c6.8-3.9,14.8-6.8,23.2-8.6c-13.8-5.2-27-20-37-47.3c-7.6-5.8-12.3-10.4-15-23.9c-0.3,4.3-0.5,8.9-0.6,14
				C6389.8,1109.7,6389.9,1110.2,6389.9,1110.8z"/>
			<path class="st2" d="M6396.4,1005.4c-2.8,8-4.6,19.3-5.7,37.4c1.5,4.4,3.4,7.5,5.7,10.2c2.5-7.3,5.8-12.1,10.2-17.1
				c4.6-5.2,10.7-9.5,17.8-12.7c-7.6-2.5-14.6-6.1-20.4-10.9C6401,1010,6398.5,1007.9,6396.4,1005.4z"/>
			<path class="st2" d="M6399.3,325.9c-15.9,18-17.6,33-17.6,169c0,33.7,0,60,0.3,80.5c1-73.6,4.6-86,17.3-100.4
				c23.8-27,88.1-28,108.4-2c9.2,12,13.1,30.2,14.4,90c0,0.1,0,0.2,0,0.3c0.1,0.4,0.1,0.8,0.2,1.2c0.3-19.8,0.4-44.5,0.4-75.6
				c0-122-2.7-149-15-165C6487.4,297.9,6423.1,298.9,6399.3,325.9z"/>
			<path class="st2" d="M6403.7,832.6c-4.5,5.1-7.8,9.9-10.3,17.2c1.3,1.4,2.6,2.7,4,3.8c2.3-5.8,5.3-10,9.2-14.4
				c6.5-7.3,15.9-12.8,26.7-16.2c-4.1-0.7-8-1.8-11.8-3.1C6414.4,823.1,6408.3,827.4,6403.7,832.6z"/>
			<path class="st2" d="M6396.3,856.3c0.4-0.9,0.7-1.8,1.1-2.7c-1.4-1.1-2.7-2.4-4-3.8c-0.2,0.5-0.3,1-0.5,1.5
				C6393.9,853.2,6395.1,854.8,6396.3,856.3z"/>
			<path class="st2" d="M6396.7,1053.4c-0.1-0.1-0.3-0.3-0.3-0.4c-0.8,2.3-1.5,4.8-2.1,7.7C6395,1058,6395.8,1055.6,6396.7,1053.4z"
				/>
			<path class="st2" d="M6386.1,783.7c0,0.5,0,1.1,0,1.7c0,0.2,0,0.4,0,0.5c1.8,7.8,4.1,12.5,7.3,16.3c2.5-7.3,5.8-12.1,10.3-17.2
				c23.8-27,88.1-28,108.4-2c1.1,1.5,2.2,3.1,3.2,4.9c2.8-8,4.5-18.9,5.6-36.3c-2.3-13.9-5.6-21.6-10.3-27.7
				c-20.3-26-84.6-25-108.4,2C6392.6,736.9,6388.1,746.7,6386.1,783.7z"/>
			<path class="st2" d="M6402.2,529.2c-12.6,14.4-16.3,26.9-17.3,100.8c0,0.1,0,0.2,0,0.2c1.8,11.9,4.5,18.2,8.5,22.9
				c2.5-7.4,5.8-12.2,10.3-17.2c23.8-27,88.1-28,108.4-2c1.1,1.5,2.2,3.1,3.2,4.9c3.3-9.5,5.2-23.3,6.2-47.5
				c-1.2-31-3.4-47.8-7.5-58.8c-1-2-2.2-3.7-3.4-5.3C6490.3,501.2,6426,502.2,6402.2,529.2z"/>
			<path class="st2" d="M6387.6,693.6c2.6-10.1,6.4-15.9,11.7-21.9c2.4-2.7,5.2-5.2,8.3-7.4c-2.3-1.2-4.5-2.8-6.5-4.4
				c-3-2.2-5.5-4.3-7.7-6.8C6390.5,661.6,6388.7,673.6,6387.6,693.6z"/>
			<path class="st2" d="M6406.6,1613.3c-12.6,14.4-16.3,26.8-17.3,100.3v0.1c0,0.1,0,0.3,0.1,0.4c0.3,2.2,0.7,4.2,1.1,6
				c1.9-38.1,6.3-48.1,16.1-59.2c23.8-27,88.2-28,108.4-2c4.7,6.1,8.1,13.8,10.3,27.7c0.2-3.5,0.4-7.3,0.6-11.3
				c-1.2-30.7-3.4-47.6-7.4-58.6c-1-2-2.2-3.7-3.5-5.4c-3.8-4.9-9.3-8.9-15.7-11.9c-21,13.2-55.1,15.1-80,3.8
				C6414.4,1606,6410.1,1609.4,6406.6,1613.3z"/>
			<path class="st2" d="M6393.4,802.2c-2.5,7.4-4.2,17.2-5.3,32.3c0.7,4.6,1.6,8.4,2.6,11.5c0.8,1.4,1.8,2.7,2.7,3.8
				c2.5-7.3,5.8-12.1,10.3-17.2c4.6-5.2,10.7-9.5,17.8-12.7c-7.6-2.5-14.6-6.1-20.4-10.9C6398.1,806.8,6395.6,804.7,6393.4,802.2z"
				/>
			<path class="st2" d="M6393.4,849.8c-0.9-1.1-1.9-2.4-2.7-3.8c0.7,2,1.4,3.7,2.2,5.3C6393.1,850.8,6393.2,850.3,6393.4,849.8z"/>
			<path class="st2" d="M6397.4,1002.7c-2.7-2.2-4.9-4.6-6.7-7.8c1.4,4.5,3.3,7.8,5.7,10.5C6396.7,1004.4,6397,1003.5,6397.4,1002.7
				z"/>
			<path class="st2" d="M6389,1185.4c0.1,32,0.3,55.7,0.9,73.6c0.9-30.1,2.8-46.2,6.4-56.9C6393.1,1198.3,6390.7,1193.5,6389,1185.4
				z"/>
			<path class="st2" d="M6390.7,1042.8c-0.7,11.9-1.1,26.8-1.4,45.8v0.1c0,0.1,0,0.3,0.1,0.4c0.2,1.4,0.4,2.8,0.6,4.1
				c0.9-14.2,2.2-24.1,4.1-31.7c0.1-0.3,0.1-0.5,0.2-0.8c0.6-2.9,1.3-5.4,2.1-7.7C6394.1,1050.3,6392.2,1047.2,6390.7,1042.8z"/>
			<path class="st2" d="M6390.5,1095.1c0.7-15,1.9-25.6,3.6-33.6c-1.9,7.6-3.2,17.5-4.1,31.7
				C6390.2,1093.9,6390.3,1094.5,6390.5,1095.1z"/>
			<path class="st2" d="M6395.1,1929.9c-2.3-6.8-3.7-16.5-4.6-31.9c-0.2,5.1-0.4,10.7-0.5,16.7
				C6391.3,1921.5,6392.9,1926.3,6395.1,1929.9z"/>
			<path class="st2" d="M6391.4,1285.3c-0.7,3-1.3,6.5-1.8,10.5c1.2,57.5,5.4,64,18.8,74.1c28.2,23,82.8,20,104-4
				c5.7-6.5,9.5-12.6,12.1-23.9c0.6-2.8,1.1-6,1.5-9.5c-0.5-14.3-1.2-25.8-2.2-35.1c-2.6,9.5-6.3,15-11.4,20.9
				c-21.2,24-75.8,27-104,4C6398.7,1315,6393.8,1309.5,6391.4,1285.3z"/>
			<path class="st2" d="M6396.4,1005.4c-2.4-2.7-4.3-6-5.7-10.5c-0.7-1-1.2-2-1.7-3.2c0,5.3,0,10.8,0,16.5c0,10,0,19.4,0,28.2
				c0.5,2.4,1.1,4.5,1.7,6.4C6391.8,1024.7,6393.6,1013.4,6396.4,1005.4z"/>
			<path class="st2" d="M6392.9,851.3c-3.3,10.7-5.1,26.7-5.9,55.3c0,0.3,0,0.6,0,0.9c0.1,3.2,0.2,6.2,0.4,9
				c0.8-8.1,1.8-14.4,3.1-19.6c1.1-19.9,2.9-32,5.8-40.6C6395.1,854.8,6393.9,853.2,6392.9,851.3z"/>
			<path class="st2" d="M6408.4,1369.9c-13.4-10.1-17.6-16.6-18.8-74.1c-0.2,0.9-0.3,1.8-0.4,2.8c0,0.1,0,0.2,0,0.2
				c-0.1,2.8-0.1,5.7-0.1,8.7c0,0.3,0,0.6,0,0.9c1.5,48.9,6,55.2,18.6,64.8c13.8,11.2,33.9,16.3,53.3,15.6
				c20.3-0.6,39.8-7.3,50.6-19.6c6.3-7.1,10.3-13.6,12.9-27.2c-2.6,11.3-6.4,17.4-12.1,23.9
				C6491.2,1389.9,6436.6,1392.9,6408.4,1369.9z"/>
			<path class="st2" d="M6390.5,1095.1c-0.2-0.6-0.3-1.2-0.5-1.9c-0.1,2.1-0.2,4.2-0.4,6.5c0.1,0.3,0.1,0.5,0,0.7
				c0.1,3,0.1,5.9,0.3,8.7C6390,1104,6390.2,1099.4,6390.5,1095.1z"/>
			<path class="st2" d="M6391.4,1481.9c-2.4,10.6-3.7,25.7-4.4,49.7c0,0.3,0,0.6,0,0.9c0.5,13.9,1.2,24.2,2.3,32.1
				c0.5-34.9,1.6-56,3.9-70.2C6392.5,1490.9,6391.9,1486.8,6391.4,1481.9z"/>
			<path class="st2" d="M6389.9,1735.8c-0.3,7.5-0.5,16-0.6,25.5c1.4,9.4,3.2,15.3,5.8,19.7
				C6392.2,1772.4,6390.7,1759.2,6389.9,1735.8z"/>
			<path class="st2" d="M6389.7,1926.8c-0.6,30.3-0.7,70.3-0.7,123.9c0,198.4,0.9,208.1,19.4,227.4c28.2,31.6,82.8,27.5,104-5.6
				c15.8-24.7,17.6-45.4,17.6-230c0-52.5-0.3-92.3-0.9-122.8c-1.7,48.1-5.9,58.9-16.7,71.2c-21.2,24-75.8,27-104,4
				C6395.5,1985.1,6391.1,1978.8,6389.7,1926.8z"/>
			<path class="st2" d="M6389.9,1734.1c0.1-5.1,0.3-9.7,0.6-14c-0.4-1.8-0.8-3.8-1.1-6C6389.5,1721.5,6389.6,1728.1,6389.9,1734.1z"
				/>
			<path class="st2" d="M6403.7,1606.7c-7.8,8.9-12.2,17-14.7,39.3c0,27.6,0.1,49.8,0.3,67.6c1-73.5,4.7-85.9,17.3-100.3
				c3.5-3.9,7.8-7.3,12.7-10.1c-2.5-1.1-5-2.3-7.3-3.9C6408.9,1601.5,6406.1,1604,6403.7,1606.7z"/>
			<path class="st2" d="M6389.3,1136.3c1.3,9.4,3.2,15.3,5.8,19.7c-2.9-8.6-4.4-21.8-5.2-45.2
				C6389.6,1118.3,6389.4,1126.8,6389.3,1136.3z"/>
			<path class="st2" d="M6390,1914.7c0.1-6,0.3-11.6,0.5-16.7c-1.1-19.2-1.4-47.1-1.5-89.1c0,6.7,0,13.7,0,21c0,33.7,0,60,0.4,80.5
				c0,0.2,0,0.3,0,0.4C6389.6,1912.2,6389.8,1913.5,6390,1914.7z"/>
			<path class="st2" d="M6389.6,1099.7c0.2-2.3,0.3-4.4,0.4-6.5c-0.2-1.3-0.4-2.7-0.6-4.1
				C6389.4,1092.8,6389.5,1096.4,6389.6,1099.7z"/>
			<path class="st2" d="M6389.3,1285.2c0.1,3.7,0.2,7.3,0.3,10.6c0.5-4,1.1-7.5,1.8-10.5c-0.7-6.8-1.2-15.2-1.5-25.4
				C6389.6,1267.4,6389.4,1275.8,6389.3,1285.2z"/>
			<path class="st2" d="M6390,1914.7c-0.2-1.2-0.4-2.5-0.6-3.9c0.1,5.8,0.2,11.1,0.3,16C6389.8,1922.6,6389.9,1918.5,6390,1914.7z"
				/>
			<path class="st2" d="M6389.9,1259.9c0-0.3,0-0.6,0-0.9c-0.6-17.9-0.8-41.6-0.9-73.6c0,6.2,0,12.7,0,19.5c0,33.6,0,59.8,0.3,80.3
				C6389.4,1275.8,6389.6,1267.4,6389.9,1259.9z"/>
			<path class="st2" d="M6389,1036.4c0.1,20.6,0.1,37.8,0.3,52.2c0.3-19,0.7-33.9,1.4-45.8C6390.1,1040.9,6389.5,1038.8,6389,1036.4
				z"/>
			<path class="st2" d="M6389.3,1713.7c-0.2,13-0.2,28-0.2,45.3c0,0.8,0.1,1.6,0.2,2.3c0.1-9.5,0.3-18,0.6-25.5c0-0.6-0.1-1.1,0-1.7
				c-0.3-6-0.4-12.6-0.5-20C6389.3,1714,6389.3,1713.8,6389.3,1713.7z"/>
			<path class="st2" d="M6389.6,1100.4c-0.2,4.7-0.4,9.9-0.5,15.4c0,0.1,0,0.3,0,0.4c0,5.6-0.1,11.6,0,17.8c0,0.8,0.1,1.6,0.2,2.3
				c0.1-9.5,0.3-18,0.6-25.5c0-0.6-0.1-1.1,0-1.7C6389.7,1106.3,6389.7,1103.4,6389.6,1100.4z"/>
			<path class="st2" d="M6389.6,1295.8c-0.1-3.3-0.2-6.9-0.3-10.6c0,4.3-0.1,8.8-0.1,13.4
				C6389.3,1297.6,6389.4,1296.7,6389.6,1295.8z"/>
			<path class="st2" d="M6389.3,1088.7c-0.1,8.2-0.2,17.2-0.2,27.1c0.1-5.5,0.3-10.7,0.5-15.4c0.1-0.2,0.1-0.4,0-0.7
				c-0.1-3.3-0.2-6.9-0.2-10.6C6389.3,1089,6389.3,1088.8,6389.3,1088.7z"/>
			<path class="st2" d="M6389,1185c-0.1,0.2,0,0.3,0,0.4c1.7,8.1,4.1,12.9,7.3,16.7c2.6-7.3,5.9-12.1,10.3-17.1
				c2.4-2.7,5.2-5.2,8.3-7.4c-2.3-1.2-4.5-2.7-6.5-4.4c-6.2-4.7-10.4-8.6-13.3-17.2c-2.6-4.4-4.5-10.3-5.8-19.7
				c-0.2,13.3-0.2,28.6-0.3,46.2C6389,1183.3,6389,1184.2,6389,1185z"/>
			<path class="st2" d="M6389,988.3c-0.1,0.1,0,0.3,0,0.5c0.5,2.3,1,4.3,1.7,6.1c1.8,3.2,4,5.6,6.7,7.8c2.4-5.8,5.4-10,9.2-14.4
				c3.5-3.9,7.8-7.3,12.7-10.1c-5.1-2.2-9.7-5-13.8-8.3c-8.7-6.6-13.5-11.7-16.2-30.3C6389.1,953.5,6389,969.6,6389,988.3z"/>
			<path class="st2" d="M6389.3,939.6c0.2-17.4,0.6-31.3,1.2-42.7c-1.3,5.2-2.3,11.5-3.1,19.6c0,0,0,0.1,0,0.2
				C6387.8,926.1,6388.5,933.6,6389.3,939.6z"/>
			<path class="st2" d="M6389,991.7c0.5,1.2,1,2.2,1.7,3.2c-0.7-1.8-1.2-3.8-1.7-6.1C6389,989.8,6389,990.7,6389,991.7z"/>
			<path class="st2" d="M6389.2,1298.8c-0.1,0.7-0.2,1.5-0.3,2.3v0.1c0.1,2.2,0.1,4.3,0.2,6.3
				C6389.1,1304.5,6389.1,1301.6,6389.2,1298.8z"/>
			<path class="st2" d="M6389.1,1759c-0.1,7.3-0.1,15.1-0.1,23.3c0,9.1,0,17.6,0,25.7c0.1-17.9,0.1-33.3,0.3-46.7
				C6389.2,1760.6,6389.1,1759.8,6389.1,1759z"/>
			<path class="st2" d="M6386.4,1707c0.4,24.2,1.2,40.6,2.7,52c0-17.3,0-32.3,0.2-45.3v-0.1c-1.1-7.9-1.8-18.2-2.3-32
				C6386.7,1689.1,6386.5,1697.6,6386.4,1707z"/>
			<path class="st2" d="M6389.1,1116.2c-0.2,4.7-0.3,9.7-0.4,15c0.1,1,0.2,2,0.4,2.8C6389,1127.8,6389.1,1121.8,6389.1,1116.2z"/>
			<path class="st2" d="M6389,1182.5c0.1-17.6,0.1-32.9,0.3-46.2c-0.1-0.7-0.2-1.5-0.2-2.3c-0.1,7.3-0.1,15.1-0.1,23.3
				C6389,1166.2,6389,1174.6,6389,1182.5z"/>
			<path class="st2" d="M6386.5,926.9c-0.2,11-0.3,23.4-0.3,37.5c0,0.1,0,0.2,0,0.2c0.6,10.2,1.5,17.8,2.8,23.7
				c0-18.7,0.1-34.8,0.3-48.7c-0.8-6-1.5-13.5-1.9-22.9C6387,919.8,6386.7,923.2,6386.5,926.9z"/>
			<path class="st2" d="M6389.3,1285.2c-0.3-20.5-0.3-46.7-0.3-80.3c0-6.8,0-13.3,0-19.5c0-0.1-0.1-0.2,0-0.4
				c-0.3-1-0.5-2.1-0.6-3.2c-0.1,8.3-0.1,17-0.1,26.4c0,40.9,0.1,70.8,0.6,92.9c0.1-0.8,0.2-1.6,0.3-2.3c0,0,0-0.1,0-0.2
				C6389.2,1294,6389.3,1289.5,6389.3,1285.2z"/>
			<path class="st2" d="M6386.1,1429.9c0,33.6,0,59.8,0.3,80.3c0.4-31.2,1.3-51.3,3.2-65.4c-0.5-21.9-0.6-51.2-0.6-90.8
				c0-17,0-32.1,0.1-45.6c0-0.3,0-0.6,0-0.9c-0.1-2-0.1-4.1-0.2-6.3C6386.5,1324.2,6386.1,1361.9,6386.1,1429.9z"/>
			<path class="st2" d="M6388.7,1131.2c-0.2,14.2-0.3,30.9-0.3,50.6c0.1,1.1,0.3,2.2,0.6,3.2c0-0.8,0-1.7,0-2.5c0-7.9,0-16.3,0-25.2
				c0-8.2,0-16,0.1-23.3C6388.9,1133.2,6388.8,1132.2,6388.7,1131.2z"/>
			<path class="st2" d="M6389,1646c-0.9,8.7-1.6,19.7-2,33.9c-0.1,0.6,0,1.1,0,1.7c0.5,13.8,1.2,24.1,2.3,32
				C6389.1,1695.8,6389,1673.6,6389,1646z"/>
			<path class="st2" d="M6386.1,1775.7c0,76,0.3,113.9,3.3,134.7c-0.4-20.5-0.4-46.8-0.4-80.5c0-7.3,0-14.3,0-21c0-0.3,0-0.6,0-0.9
				c0-8.1,0-16.6,0-25.7c0-8.2,0-16,0.1-23.3c-1.5-11.4-2.3-27.8-2.7-52C6386.2,1725.6,6386.1,1748.2,6386.1,1775.7z"/>
			<path class="st2" d="M6386.1,1011.1c0,64.2,0.3,99.4,2.6,120.1c0.1-5.3,0.2-10.3,0.4-15c0-0.1,0-0.3,0-0.4
				c0-9.9,0.1-18.9,0.2-27.1v-0.1c-2.1-14.6-2.8-37.7-3.1-76.4c0,0,0-0.1,0-0.2C6386.1,1011.7,6386.1,1011.4,6386.1,1011.1z"/>
			<path class="st2" d="M6390.7,846c-1-3.1-1.9-6.9-2.6-11.5c-0.1,1.6-0.2,3.2-0.3,4.9C6388.6,842,6389.6,844.1,6390.7,846z"/>
			<path class="st2" d="M6393.4,802.2c-3.2-3.8-5.5-8.5-7.3-16.3c0,6.1,0,12.4,0,19c0,3.2,0,6.4,0,9.5c0.5,8.2,1.1,14.8,2,20.1
				C6389.2,819.4,6390.9,809.6,6393.4,802.2z"/>
			<path class="st2" d="M6386.1,1605.6c0.1,32.2,0.2,56.2,0.9,74.3c0.4-14.2,1.1-25.2,2-33.9c0-4.1,0-8.4,0-12.8
				c0-27.5,0.1-50,0.3-68.6c-1.1-7.9-1.8-18.2-2.3-32.1C6386.4,1551,6386.2,1574.7,6386.1,1605.6z"/>
			<path class="st2" d="M6389,1036.4c-1.3-6-2.2-13.8-2.8-24.2c0.3,38.7,1,61.8,3.1,76.4C6389.1,1074.2,6389.1,1057,6389,1036.4z"/>
			<path class="st2" d="M6393.4,653.1c-4-4.7-6.7-11-8.5-22.9c-0.2,18.5-0.3,40.8-0.3,68c0,4.4,0,8.7,0,12.8
				c0.8-7.1,1.8-12.8,3-17.4C6388.7,673.6,6390.5,661.6,6393.4,653.1z"/>
			<path class="st2" d="M6399.3,522.6c-11,12.5-15.2,23.5-16.7,74.3c-0.1,0.2-0.1,0.4,0,0.6c0.4,14.1,1.2,24.6,2.3,32.5
				c1-73.9,4.7-86.4,17.3-100.8c23.8-27,88.1-28,108.4-2c1.2,1.6,2.4,3.3,3.4,5.3c-1.7-4.9-3.8-8.6-6.3-11.9
				C6487.4,494.6,6423.1,495.6,6399.3,522.6z"/>
			<path class="st2" d="M6387.4,916.7c0-0.1,0-0.2,0-0.2c-0.2-2.8-0.3-5.8-0.4-9c-0.3,5.9-0.4,12.3-0.5,19.4
				C6386.7,923.2,6387,919.8,6387.4,916.7z"/>
			<path class="st2" d="M6387.8,839.4c-0.7,11.9-1.1,26.8-1.4,45.8c0.2,8,0.3,15.1,0.6,21.4c0.8-28.6,2.6-44.6,5.9-55.3
				c-0.8-1.6-1.5-3.3-2.2-5.3C6389.6,844.1,6388.6,842,6387.8,839.4z"/>
			<path class="st2" d="M6386.1,833.5c0.1,20.4,0.1,37.4,0.3,51.7c0.3-19,0.7-33.9,1.4-45.8C6387.2,837.7,6386.6,835.7,6386.1,833.5
				z"/>
			<path class="st2" d="M6386.4,1510.2c0.2,8,0.3,15.1,0.6,21.4c0.7-24,2-39.1,4.4-49.7c-0.9-9.2-1.5-21.2-1.8-37.1
				C6387.7,1458.9,6386.8,1479,6386.4,1510.2z"/>
			<path class="st2" d="M6399.3,671.7c-5.3,6-9.1,11.8-11.7,21.9c-0.5,10-0.9,22-1.1,36.7c2.1-32.2,6.6-41.6,15.7-52
				c3.5-3.9,7.8-7.3,12.7-10.1c-2.5-1.1-5-2.3-7.3-3.9C6404.5,666.5,6401.7,669,6399.3,671.7z"/>
			<path class="st2" d="M6386.4,885.2c-0.2,13.6-0.2,29.3-0.3,47.5c0.1-2,0.3-4,0.4-5.8c0.1-7.1,0.2-13.5,0.5-19.4
				c0-0.3,0-0.6,0-0.9C6386.7,900.3,6386.6,893.2,6386.4,885.2z"/>
			<path class="st2" d="M6388.1,834.5c-0.9-5.3-1.5-11.9-2-20.1c0,6.6,0,12.9,0,18.9c0,0.1,0,0.2,0,0.2c0.5,2.2,1.1,4.2,1.7,5.9
				C6387.9,837.7,6388,836.1,6388.1,834.5z"/>
			<path class="st2" d="M6386.1,783.7c2-37,6.5-46.8,16.1-57.8c23.8-27,88.1-28,108.4-2c4.7,6.1,8,13.8,10.3,27.7
				c0.2-3.5,0.4-7.2,0.6-11.3c-1.2-30.7-3.4-47.6-7.4-58.6c-1-2-2.2-3.7-3.5-5.4c-3.9-4.9-9.3-8.9-15.8-11.9
				c-21,13.2-55,15.1-79.9,3.8c-4.9,2.8-9.2,6.2-12.7,10.1c-9.1,10.4-13.6,19.8-15.7,52C6386.3,745.2,6386.2,762.8,6386.1,783.7z"/>
			<path class="st2" d="M6386.1,982.7c0,10.7,0.1,20.4,0.1,29.3c0,0.1,0,0.2,0,0.2c0.6,10.4,1.5,18.2,2.8,24.2c0-8.8,0-18.2,0-28.2
				c0-5.7,0-11.2,0-16.5C6387.9,989.2,6386.9,986.3,6386.1,982.7z"/>
			<path class="st2" d="M6386.1,982.7c0.8,3.6,1.8,6.5,2.9,9c0-1,0-1.9,0-2.9c0-0.2-0.1-0.4,0-0.5c-1.3-5.9-2.2-13.5-2.8-23.7
				c-0.1,5.1-0.1,10.4-0.1,16c0,0.6,0,1.3,0,1.9C6386.1,982.5,6386.1,982.6,6386.1,982.7z"/>
			<path class="st2" d="M6386.2,964.4c0-14.1,0.1-26.5,0.3-37.5c-0.1,1.8-0.3,3.8-0.4,5.8c0,6.8,0,13.8,0,21.3c0,3.2,0,6.4,0,9.5
				C6386.1,963.8,6386.1,964.1,6386.2,964.4z"/>
			<path class="st2" d="M6387,1679.9c-0.7-18.1-0.8-42.1-0.9-74.3c0,6.7,0,13.7,0,21c0,33.7,0,59.9,0.3,80.4
				c0.1-9.4,0.3-17.9,0.6-25.4C6387,1681,6386.9,1680.5,6387,1679.9z"/>
			<path class="st2" d="M6387,1531.6c-0.3-6.3-0.4-13.4-0.6-21.4c-0.2,18.7-0.3,41.3-0.3,68.8c0,9.4,0,18.3,0,26.6
				c0.1-30.9,0.3-54.6,0.9-73.1C6387,1532.2,6387,1531.9,6387,1531.6z"/>
			<path class="st2" d="M6386.1,980.6c0-5.6,0-10.9,0.1-16c0,0,0-0.1,0-0.2c-0.1-0.3-0.1-0.6-0.1-0.9
				C6386.1,969.4,6386.1,975.1,6386.1,980.6z"/>
			<path class="st2" d="M6386.2,1012c0-8.9-0.1-18.6-0.1-29.3c0,6,0,12.3,0,18.9c0,3.2,0,6.4,0,9.5
				C6386.1,1011.4,6386.1,1011.7,6386.2,1012z"/>
			<path class="st2" d="M6385,779.4c0.3,2.2,0.7,4.2,1.1,6c0-0.6,0-1.2,0-1.7c0.1-20.9,0.2-38.5,0.4-53.4
				c-0.8,12.3-1.3,27.9-1.6,48.3C6385,778.9,6385,779.2,6385,779.4z"/>
			<path class="st2" d="M6385.5,949.9c-0.3,7.5-0.5,15.9-0.6,25.3c0.1,0.3,0.1,0.7,0.1,1c0.3,2.3,0.7,4.4,1.1,6.3c0-0.6,0-1.3,0-1.9
				c0-5.5,0-11.2,0-17.1C6385.9,959.4,6385.7,954.9,6385.5,949.9z"/>
			<path class="st2" d="M6386.1,932.7c-0.2,5-0.4,10.4-0.6,16.3c0,0.3,0,0.6,0,0.9c0.2,5,0.4,9.5,0.6,13.6c0-3.1,0-6.3,0-9.5
				C6386.1,946.5,6386.1,939.5,6386.1,932.7z"/>
			<path class="st2" d="M6385,976.2c0.2,14.2,0.5,25.6,1.1,34.9c0-3.1,0-6.3,0-9.5c0-6.6,0-12.9,0-18.9c0-0.1,0-0.2,0-0.2
				C6385.7,980.6,6385.3,978.5,6385,976.2z"/>
			<path class="st2" d="M6385.5,800.8c0.2,5,0.4,9.5,0.6,13.6c0-3.1,0-6.3,0-9.5c0-6.6,0-12.9,0-19c0-0.1,0-0.3,0-0.5
				c-0.3,4.2-0.4,8.7-0.6,13.7C6385.4,799.7,6385.5,800.2,6385.5,800.8z"/>
			<path class="st2" d="M6384.6,711c0,27.6,0.1,49.8,0.3,67.6c0.3-20.4,0.8-36,1.6-48.3c0.2-14.7,0.6-26.7,1.1-36.7
				C6386.4,698.2,6385.4,703.9,6384.6,711z"/>
			<path class="st2" d="M6385.5,800.8c-0.3,7.6-0.5,16.2-0.6,25.9c0,0,0,0.1,0,0.2c0.4,2.4,0.8,4.5,1.2,6.4c0-6,0-12.3,0-18.9
				C6385.9,810.3,6385.7,805.8,6385.5,800.8z"/>
			<path class="st2" d="M6386.1,833.3c-0.4-1.9-0.8-4-1.2-6.4c-0.2,13.5-0.2,29-0.3,47c0.1,32.7,0.2,56.9,0.9,75.1
				c0.2-5.9,0.4-11.3,0.6-16.3c0.1-18.2,0.1-33.9,0.3-47.5c-0.2-14.3-0.2-31.3-0.3-51.7C6386.1,833.5,6386.1,833.4,6386.1,833.3z"/>
			<path class="st2" d="M6384.6,1044c0,80,0.3,117.7,3.8,137.8c0-19.7,0.1-36.4,0.3-50.6c-2.3-20.7-2.6-55.9-2.6-120.1
				c-0.6-9.3-0.9-20.7-1.1-34.9c0,0,0-0.1-0.1-0.2C6384.7,994.5,6384.6,1016.8,6384.6,1044z"/>
			<path class="st2" d="M6386.1,785.4c-0.4-1.8-0.8-3.8-1.1-6c0.1,7.3,0.2,13.8,0.5,19.7C6385.7,794.1,6385.8,789.6,6386.1,785.4z"
				/>
			<path class="st2" d="M6384.9,976c0.1,0.1,0.1,0.2,0.1,0.2c0-0.3,0-0.7-0.1-1c0,0.2,0,0.4,0,0.6
				C6384.9,975.9,6384.9,976,6384.9,976z"/>
			<path class="st2" d="M6384.9,779.3c-0.2,13.1-0.2,28.1-0.3,45.4c0.1,0.7,0.2,1.3,0.3,2c0.1-9.7,0.3-18.3,0.6-25.9
				c0-0.6-0.1-1.1,0-1.7c-0.3-5.9-0.4-12.4-0.5-19.7C6385,779.3,6385,779.3,6384.9,779.3z"/>
			<path class="st2" d="M6385,779.4c0-0.2,0-0.5-0.1-0.8c0,0.2,0,0.3,0,0.5c0,0,0,0.1,0,0.2C6385,779.3,6385,779.3,6385,779.4z"/>
			<path class="st2" d="M6384.6,873.9c0.1-18,0.1-33.5,0.3-47c0-0.1,0-0.2,0-0.2c-0.1-0.7-0.2-1.3-0.3-2c0,7.1,0,14.7,0,22.6
				C6384.6,856.7,6384.6,865.6,6384.6,873.9z"/>
			<path class="st2" d="M6384.6,894.9c0,33.6,0,59.8,0.3,80.3c0.1-9.4,0.3-17.8,0.6-25.3c0-0.3,0-0.6,0-0.9
				c-0.7-18.2-0.8-42.4-0.9-75.1C6384.6,880.6,6384.6,887.6,6384.6,894.9z"/>
			<path class="st2" d="M6382,773.4c0.4,23.9,1.2,40,2.6,51.3c0.1-17.3,0.1-32.3,0.3-45.4c0-0.1,0-0.2,0-0.2
				c-1.1-7.9-1.9-18.4-2.3-32.5c-0.3,7.5-0.5,16-0.6,25.5C6382.1,772.6,6382.1,773,6382,773.4z"/>
			<path class="st2" d="M6384.6,711c-0.9,9-1.6,20.3-2,35.1c-0.1,0.2-0.1,0.3,0,0.5c0.4,14.1,1.2,24.6,2.3,32.5c0-0.2,0-0.3,0-0.5
				C6384.7,760.8,6384.6,738.6,6384.6,711z"/>
			<path class="st2" d="M6382.6,597.5c-0.6,18.5-0.8,42.2-0.9,73.1c0.1,32.9,0.2,57.3,0.9,75.5c0.4-14.8,1.1-26.1,2-35.1
				c0-4.1,0-8.4,0-12.8c0-27.2,0.1-49.5,0.3-68c0,0,0-0.1,0-0.2C6383.8,622.1,6383,611.6,6382.6,597.5z"/>
			<path class="st2" d="M6382.6,596.9c1.5-50.8,5.7-61.8,16.7-74.3c23.8-27,88.1-28,108.4-2c2.5,3.3,4.6,7,6.3,11.9
				c3.7,6.6,6.3,15.6,8.1,30.5c-1.3-59.8-5.2-78-14.4-90c-20.3-26-84.6-25-108.4,2c-12.7,14.4-16.3,26.8-17.3,100.4
				c0.1,0.5,0.1,0.9,0,1.3C6382.2,584.2,6382.3,590.9,6382.6,596.9z"/>
			<path class="st2" d="M6381.7,840.7c0,76.5,0.2,114.3,3.2,135.1c0-0.2,0-0.4,0-0.6c-0.3-20.5-0.3-46.7-0.3-80.3c0-7.3,0-14.3,0-21
				c0-8.3,0-17.2,0-26.6c0-7.9,0-15.5,0-22.6c-1.4-11.3-2.2-27.4-2.6-51.3C6381.8,791.7,6381.7,813.9,6381.7,840.7z"/>
			<path class="st2" d="M6381.7,670.6c0.1-30.9,0.3-54.6,0.9-73.1c-0.1-0.2-0.1-0.4,0-0.6c-0.3-6-0.4-12.7-0.6-20.2
				c-0.2,18.3-0.3,40.5-0.3,67.3C6381.7,653.4,6381.7,662.3,6381.7,670.6z"/>
			<path class="st2" d="M6382.6,746.1c-0.7-18.2-0.8-42.6-0.9-75.5c0,6.7,0,13.7,0,21c0,33.8,0,60,0.3,80.5c0.1-9.5,0.3-18,0.6-25.5
				C6382.5,746.4,6382.5,746.3,6382.6,746.1z"/>
			<path class="st0" d="M6109,456c39-35,29-111-17-123c-38-9-328,6-357,19c-14,6-27,21-30,32c-6,30-45,616-52,781
				c-5,121,11,917,22,1090c2,33,6,150,10,260c7,203,10,230,27,253c15,18,42,15,69-7c21-17,24-28,24-83c0-67-12-391-20-523
				c-3-44-7-145-10-225c-2-80-7-219-11-310c-5-123,0-283,20-630c15-256,29-475,31-486c5-21,12-22,139-26C6067,475,6092,472,6109,456
				z"/>
			<path class="st0" d="M5346,454c29-28,32-84,7-110c-16-15-35-16-190-11c-95,3-181,11-193,17c-11,6-22,21-24,33
				c-7,32-45,576-52,747c-6,129,10,1029,21,1170c2,30,7,141,10,245c5,139,11,196,21,213c39,60,112-7,100-92c-3-22-8-131-11-241
				c-4-110-8-210-10-221c-8-49-20-556-18-759c1-121,9-339,17-485c9-146,19-310,23-365c3-55,8-103,12-107c3-4,64-8,135-9
				C5315,478,5324,476,5346,454z"/>
			<path class="st0" d="M4606,2724c6-25-3-1066-11-1164c-7-101-18-575-19-877c-3-386,5-363-120-362c-143,0-297,16-311,30
				c-21,22-71,342-95,599c-32,355-39,804-24,1464l7,308l25,30c19,23,32,28,56,26l31-3v-150c0-82-4-314-9-515c-6-252-5-413,2-520
				c11-152,16-248,28-545c6-178,56-540,76-560c2-2,49-7,104-11l101-7l7,369c4,203,9,389,11,414c8,99,15,538,16,956
				c1,242,3,453,6,467C4500,2739,4592,2779,4606,2724z"/>
			<path class="st0" d="M3783,1540c2-1157,1-1217-16-1243c-22-34-59-49-89-38l-23,8l-1,724c-1,723-9,1099-25,1099c-5,0-9-8-9-17
				c0-21-90-343-132-471c-23-70-35-95-51-101c-22-8-74,2-89,17c-5,5-26,76-48,158s-55,203-73,269l-34,120l-8-130
				c-8-138-12-1036-6-1395l3-214l-32-29c-23-21-40-27-63-25l-32,3l-6,100c-8,120-10,410-9,1523v843l25,24c35,36,90,35,109-2
				c7-16,44-156,81-313c66-280,154-632,160-638c9-9,90,274,145,508c52,220,110,432,122,446c15,20,58,22,79,5
				C3780,2755,3781,2737,3783,1540z"/>
			<path class="st0" d="M2420,2728v-31c0-18-9-40-22-54c-20-21-30-23-130-23h-108v-77c0-43-2-271-4-508c-3-236-1-477,4-535
				c9-108,25-502,35-830c3-102,8-209,11-238c7-64-11-97-61-118c-38-15-62-10-69,14c-8,30-21,366-31,817c-4,138-11,297-16,355
				c-7,67-8,287-3,611l7,506l-113,9c-91,7-115,12-124,27c-13,21,9,66,40,82c21,11,327,10,492-1L2420,2728z"/>
			<path class="st0" d="M1565,760c10-144,17-399,10-419c-14-44-44-49-277-43c-138,3-223,9-232,16c-17,13-47,253-67,526
				c-11,159-15,1032-5,1170c2,36,7,171,11,300c9,359,10,369,36,396c18,19,34,24,88,27c36,2,128,4,204,5c125,2,140,0,159-18
				c27-25,20,150,58-1475C1555,1014,1562,796,1565,760z M1442,425l-6,125c-4,69-9,166-11,215c-3,50-7,196-10,325s-8,291-10,360
				s-7,287-11,485s-9,432-13,520l-6,160l-30,1c-16,0-67-1-112-3l-83-4v-57c0-31-3-100-5-152c-13-260-15-352-20-825
				c-2-280,0-576,5-657c10-160,38-443,46-470c4-15,23-17,135-20L1442,425z"/>
			<path class="st0" d="M737,2711c56,21,53,99,53-1182c0-1166,0-1179-20-1199c-22-22-60-26-78-8c-9,9-12,145-12,551v540l-47-7
				c-27-3-93-8-148-11c-156-9-145-3-140-88c2-39,7-144,10-232s15-281,26-430c23-328,23-297-1-323c-22-23-74-30-85-11
				c-14,22-68,784-80,1124c-4,99-9,191-11,205s-7,260-11,547c-7,558-8,543,42,563c28,12,29,12,48-2c24-18,29-116,42-848
				c3-157,8-309,11-339l6-54l130,7c72,3,147,9,167,12l36,6l4,566C683,2714,680,2689,737,2711z"/>
		</g>
		<g>
		</g>
	</g>
</g>
</svg>
